<svg xmlns="http://www.w3.org/2000/svg" viewBox="0 0 512 512">
  <defs>
    <linearGradient id="grad" x1="0%" y1="0%" x2="100%" y2="100%">
      <stop offset="0%" style="stop-color:#6366f1;stop-opacity:1" />
      <stop offset="100%" style="stop-color:#8b5cf6;stop-opacity:1" />
    </linearGradient>
  </defs>
  <rect width="512" height="512" rx="100" fill="#0f172a" />
  <rect x="56" y="56" width="400" height="400" rx="80" fill="url(#grad)" opacity="0.2" />
  
  <g transform="translate(106, 106) scale(0.6)">
    <path fill="white" d="M320 464c8.8 0 16-7.2 16-16V160H256c-17.7 0-32-14.3-32-32V48H64c-8.8 0-16 7.2-16 16V448c0 8.8 7.2 16 16 16H320zM0 64C0 28.7 28.7 0 64 0H229.5c17 0 33.3 6.7 45.3 18.7l90.5 90.5c12 12 18.7 28.3 18.7 45.3V448c0 35.3-28.7 64-64 64H64c-35.3 0-64-28.7-64-64V64z"/>
    <path fill="white" d="M128 256h64v64h-64v-64zm80 0h64v64h-64v-64zm80 0h64v64h-64v-64zm-160 80h64v64h-64v-64zm80 0h64v64h-64v-64zm80 0h64v64h-64v-64z"/>
  </g>
</svg>
